<?xml version="1.0" ?><!DOCTYPE svg  PUBLIC '-//W3C//DTD SVG 1.1//EN'  'http://www.w3.org/Graphics/SVG/1.1/DTD/svg11.dtd'><svg enable-background="new 0 0 512 512" id="Layer_1" version="1.1" viewBox="0 0 512 512" xml:space="preserve" xmlns="http://www.w3.org/2000/svg" xmlns:xlink="http://www.w3.org/1999/xlink"><linearGradient gradientUnits="userSpaceOnUse" id="SVGID_1_" x1="256" x2="256" y1="512" y2="-9.094947e-013"><stop offset="0" style="stop-color:#CB2D3E"/><stop offset="1" style="stop-color:#EF473A"/></linearGradient><circle cx="256" cy="256" fill="url(#SVGID_1_)" r="256"/><path d="M352.6,161.3l-117-41.1c-4.5-1.6-9.4-0.9-13.3,1.9c-3.9,2.7-6.2,7.2-6.2,11.9v145.2  c-7-7.2-16.8-11.6-27.6-11.6c-21.4,0-38.8,17.4-38.8,38.8c0,21.4,17.4,38.8,38.8,38.8c21.4,0,38.8-17.4,38.8-38.8V134  c0-1.6,1-2.5,1.4-2.8c0.4-0.3,1.6-1,3.1-0.4l117,41.1c1.4,0.5,2.3,1.8,2.3,3.2v151.5c-7-7.2-16.8-11.6-27.6-11.6  c-21.4,0-38.8,17.4-38.8,38.8c0,21.4,17.4,38.8,38.8,38.8c21.4,0,38.8-17.4,38.8-38.8V175.1C362.3,168.9,358.4,163.3,352.6,161.3z   M188.5,334c-15.2,0-27.6-12.4-27.6-27.6c0-15.2,12.4-27.6,27.6-27.6c15.2,0,27.6,12.4,27.6,27.6C216.1,321.6,203.7,334,188.5,334z   M323.5,381.4c-15.2,0-27.6-12.4-27.6-27.6c0-15.2,12.4-27.6,27.6-27.6c15.2,0,27.6,12.4,27.6,27.6  C351.1,369,338.7,381.4,323.5,381.4z" fill="#FFFFFF"/></svg>